# xmcd
#
# Track frame offsets:
#	150
#	19355
#	33460
#	51565
#	65408
#	79283
#	95613
#	107588
#	129698
#	142468
#	156970
#	172403
#	189265
#
# Disc length: 2687 seconds
#
# Revision: 1
# Processed by: cddbd v1.5.2PL0 Copyright (c) Steve Scherf et al.
# Submitted via: audiograbber 1.83.01
#
DISCID=c80a7d0d
DTITLE=Dolly Parton - The Grass Is Blue
DYEAR=1999
DGENRE=Country
TTITLE0=Travelin' Prayer
TTITLE1=Cash On The Barrelhead
TTITLE2=A Few Old Memories
TTITLE3=I'm Gonna Sleep With One Eye Open
TTITLE4=Steady As The Rain
TTITLE5=I Still Miss Someone
TTITLE6=Endless Stream Of Tears
TTITLE7=Silver Dagger
TTITLE8=Train, Train
TTITLE9=I Wonder Where You Are Tonight
TTITLE10=Will He Be Waiting For Me
TTITLE11=The Grass Is Blue
TTITLE12=I Am Ready
EXTD=
EXTT0=
EXTT1=
EXTT2=
EXTT3=
EXTT4=
EXTT5=
EXTT6=
EXTT7=
EXTT8=
EXTT9=
EXTT10=
EXTT11=
EXTT12=
PLAYORDER=
